<svg width="24" height="24" viewBox="0 0 24 24" fill="none" xmlns="http://www.w3.org/2000/svg">
<path d="M14.5 20.75H20.75V3.25H3.25V20.75H12V14.5H9.5V12H12V9.9325C12 8.26125 12.175 7.655 12.5 7.04375C12.8201 6.43898 13.315 5.94461 13.92 5.625C14.3975 5.36875 14.9912 5.215 16.0287 5.14875C16.44 5.1225 16.9725 5.155 17.6262 5.24875V7.62375H17C15.8538 7.62375 15.38 7.6775 15.0975 7.82875C14.9289 7.91545 14.7917 8.05268 14.705 8.22125C14.555 8.50375 14.5 8.78375 14.5 9.93125V12H17.625L17 14.5H14.5V20.75ZM2 0.75H22C22.3315 0.75 22.6495 0.881696 22.8839 1.11612C23.1183 1.35054 23.25 1.66848 23.25 2V22C23.25 22.3315 23.1183 22.6495 22.8839 22.8839C22.6495 23.1183 22.3315 23.25 22 23.25H2C1.66848 23.25 1.35054 23.1183 1.11612 22.8839C0.881696 22.6495 0.75 22.3315 0.75 22V2C0.75 1.66848 0.881696 1.35054 1.11612 1.11612C1.35054 0.881696 1.66848 0.75 2 0.75V0.75Z" fill="white"/>
</svg>
