<svg width="26" height="26" viewBox="0 0 26 26" fill="none" xmlns="http://www.w3.org/2000/svg">
<path d="M13 9.25C12.0054 9.25 11.0516 9.64509 10.3483 10.3483C9.64509 11.0516 9.25 12.0054 9.25 13C9.25 13.9946 9.64509 14.9484 10.3483 15.6517C11.0516 16.3549 12.0054 16.75 13 16.75C13.9946 16.75 14.9484 16.3549 15.6517 15.6517C16.3549 14.9484 16.75 13.9946 16.75 13C16.75 12.0054 16.3549 11.0516 15.6517 10.3483C14.9484 9.64509 13.9946 9.25 13 9.25ZM13 6.75C14.6576 6.75 16.2473 7.40848 17.4194 8.58058C18.5915 9.75268 19.25 11.3424 19.25 13C19.25 14.6576 18.5915 16.2473 17.4194 17.4194C16.2473 18.5915 14.6576 19.25 13 19.25C11.3424 19.25 9.75268 18.5915 8.58058 17.4194C7.40848 16.2473 6.75 14.6576 6.75 13C6.75 11.3424 7.40848 9.75268 8.58058 8.58058C9.75268 7.40848 11.3424 6.75 13 6.75ZM21.125 6.4375C21.125 6.8519 20.9604 7.24933 20.6674 7.54235C20.3743 7.83538 19.9769 8 19.5625 8C19.1481 8 18.7507 7.83538 18.4576 7.54235C18.1646 7.24933 18 6.8519 18 6.4375C18 6.0231 18.1646 5.62567 18.4576 5.33265C18.7507 5.03962 19.1481 4.875 19.5625 4.875C19.9769 4.875 20.3743 5.03962 20.6674 5.33265C20.9604 5.62567 21.125 6.0231 21.125 6.4375ZM13 3C9.9075 3 9.4025 3.00875 7.96375 3.0725C6.98375 3.11875 6.32625 3.25 5.71625 3.4875C5.17375 3.6975 4.7825 3.94875 4.36625 4.36625C3.97501 4.74425 3.67419 5.20573 3.48625 5.71625C3.24875 6.32875 3.1175 6.985 3.0725 7.96375C3.0075 9.34375 3 9.82625 3 13C3 16.0925 3.00875 16.5975 3.0725 18.0362C3.11875 19.015 3.25 19.6737 3.48625 20.2825C3.69875 20.8263 3.94875 21.2175 4.36375 21.6325C4.785 22.0525 5.17625 22.3037 5.71375 22.5112C6.33125 22.75 6.98875 22.8825 7.96375 22.9275C9.34375 22.9925 9.82625 23 13 23C16.0925 23 16.5975 22.9912 18.0362 22.9275C19.0138 22.8812 19.6725 22.75 20.2825 22.5138C20.8237 22.3025 21.2175 22.0513 21.6325 21.6362C22.0538 21.215 22.305 20.8238 22.5125 20.2863C22.75 19.67 22.8825 19.0112 22.9275 18.0362C22.9925 16.6562 23 16.1737 23 13C23 9.9075 22.9912 9.4025 22.9275 7.96375C22.8812 6.98625 22.75 6.32625 22.5125 5.71625C22.3241 5.20625 22.0238 4.74495 21.6337 4.36625C21.2559 3.97481 20.7944 3.67396 20.2837 3.48625C19.6712 3.24875 19.0138 3.1175 18.0362 3.0725C16.6562 3.0075 16.1737 3 13 3ZM13 0.5C16.3962 0.5 16.82 0.5125 18.1525 0.575C19.4837 0.6375 20.39 0.84625 21.1875 1.15625C22.0125 1.47375 22.7075 1.90375 23.4025 2.5975C24.0381 3.22237 24.5299 3.97824 24.8438 4.8125C25.1525 5.60875 25.3625 6.51625 25.425 7.8475C25.4838 9.18 25.5 9.60375 25.5 13C25.5 16.3962 25.4875 16.82 25.425 18.1525C25.3625 19.4837 25.1525 20.39 24.8438 21.1875C24.5308 22.0222 24.0389 22.7783 23.4025 23.4025C22.7775 24.0379 22.0216 24.5297 21.1875 24.8438C20.3912 25.1525 19.4837 25.3625 18.1525 25.425C16.82 25.4838 16.3962 25.5 13 25.5C9.60375 25.5 9.18 25.4875 7.8475 25.425C6.51625 25.3625 5.61 25.1525 4.8125 24.8438C3.97791 24.5306 3.22191 24.0387 2.5975 23.4025C1.96176 22.7777 1.46991 22.0218 1.15625 21.1875C0.84625 20.3912 0.6375 19.4837 0.575 18.1525C0.51625 16.82 0.5 16.3962 0.5 13C0.5 9.60375 0.5125 9.18 0.575 7.8475C0.6375 6.515 0.84625 5.61 1.15625 4.8125C1.46905 3.97772 1.961 3.22165 2.5975 2.5975C3.22209 1.96154 3.97804 1.46966 4.8125 1.15625C5.61 0.84625 6.515 0.6375 7.8475 0.575C9.18 0.51625 9.60375 0.5 13 0.5Z" fill="white"/>
</svg>
