<svg width="24" height="24" viewBox="0 0 24 24" fill="none" xmlns="http://www.w3.org/2000/svg">
<path d="M2 0.75H22C22.3315 0.75 22.6495 0.881696 22.8839 1.11612C23.1183 1.35054 23.25 1.66848 23.25 2V22C23.25 22.3315 23.1183 22.6495 22.8839 22.8839C22.6495 23.1183 22.3315 23.25 22 23.25H2C1.66848 23.25 1.35054 23.1183 1.11612 22.8839C0.881696 22.6495 0.75 22.3315 0.75 22V2C0.75 1.66848 0.881696 1.35054 1.11612 1.11612C1.35054 0.881696 1.66848 0.75 2 0.75ZM3.25 3.25V20.75H20.75V3.25H3.25ZM6.375 8.25C5.87772 8.25 5.40081 8.05246 5.04917 7.70083C4.69754 7.34919 4.5 6.87228 4.5 6.375C4.5 5.87772 4.69754 5.40081 5.04917 5.04917C5.40081 4.69754 5.87772 4.5 6.375 4.5C6.87228 4.5 7.34919 4.69754 7.70083 5.04917C8.05246 5.40081 8.25 5.87772 8.25 6.375C8.25 6.87228 8.05246 7.34919 7.70083 7.70083C7.34919 8.05246 6.87228 8.25 6.375 8.25ZM5.125 9.5H7.625V18.875H5.125V9.5ZM12 10.0375C12.73 9.33125 13.5825 8.875 14.5 8.875C17.0888 8.875 18.875 10.9738 18.875 13.5625V18.875H16.375V13.5625C16.375 12.9823 16.1445 12.4259 15.7343 12.0157C15.3241 11.6055 14.7677 11.375 14.1875 11.375C13.6073 11.375 13.0509 11.6055 12.6407 12.0157C12.2305 12.4259 12 12.9823 12 13.5625V18.875H9.5V9.5H12V10.0375Z" fill="white"/>
</svg>
