<svg width="26" height="22" viewBox="0 0 26 22" fill="none" xmlns="http://www.w3.org/2000/svg">
<path d="M18.125 2.93752C17.175 2.93736 16.2629 3.31017 15.5849 3.97573C14.907 4.64129 14.5174 5.54639 14.5 6.49627L14.465 8.46502C14.463 8.57073 14.4386 8.6748 14.3935 8.77043C14.3484 8.86605 14.2836 8.95106 14.2033 9.01987C14.1231 9.08869 14.0292 9.13975 13.9278 9.16972C13.8264 9.19969 13.7198 9.20789 13.615 9.19377L11.6638 8.92877C9.09627 8.57877 6.63627 7.39627 4.27627 5.43002C3.52877 9.56752 4.98877 12.4338 8.50502 14.645L10.6888 16.0175C10.7925 16.0827 10.8787 16.1724 10.9398 16.2786C11.0009 16.3848 11.0351 16.5044 11.0393 16.6269C11.0435 16.7493 11.0176 16.871 10.9639 16.9811C10.9102 17.0913 10.8303 17.1866 10.7313 17.2588L8.74127 18.7125C9.92502 18.7863 11.0488 18.7338 11.9813 18.5488C17.8788 17.3713 21.8 12.9338 21.8 5.61377C21.8 5.01627 20.535 2.93752 18.125 2.93752ZM12 6.45002C12.0218 5.24508 12.3986 4.07336 13.0832 3.08155C13.7678 2.08974 14.7298 1.32192 15.8487 0.87423C16.9676 0.426539 18.1937 0.31887 19.3735 0.564705C20.5532 0.81054 21.6343 1.39895 22.4813 2.25627C23.37 2.25002 24.1263 2.47502 25.8175 1.45002C25.3988 3.50002 25.1925 4.39002 24.3 5.61377C24.3 15.1663 18.4288 19.8113 12.4713 21C8.38627 21.815 2.44627 20.4763 0.743774 18.6988C1.61127 18.6313 5.13627 18.2525 7.17377 16.7613C5.45002 15.625 -1.41123 11.5875 3.09752 0.732521C5.21377 3.20377 7.36002 4.88627 9.53502 5.77877C10.9825 6.37252 11.3375 6.36002 12.0013 6.45127L12 6.45002Z" fill="white"/>
</svg>
