<svg width="423" height="147" viewBox="0 0 423 147" fill="none" xmlns="http://www.w3.org/2000/svg">
<g clip-path="url(#clip0_1_260)">
<path d="M419.409 139.815C417.426 139.815 415.819 141.423 415.819 143.407C415.819 145.392 417.426 147 419.409 147C421.392 147 423 145.392 423 143.407C423 141.423 421.392 139.815 419.409 139.815Z" fill="#101020"/>
<path d="M367.432 139.815C365.449 139.815 363.841 141.423 363.841 143.407C363.841 145.392 365.449 147 367.432 147C369.415 147 371.022 145.392 371.022 143.407C371.022 141.423 369.415 139.815 367.432 139.815Z" fill="#FF0B53"/>
<path d="M315.455 139.815C313.472 139.815 311.864 141.423 311.864 143.407C311.864 145.392 313.472 147 315.455 147C317.438 147 319.046 145.392 319.046 143.407C319.046 141.423 317.438 139.815 315.455 139.815Z" fill="#FF0B53"/>
<path d="M263.477 139.815C261.494 139.815 259.887 141.423 259.887 143.407C259.887 145.392 261.494 147 263.477 147C265.46 147 267.068 145.392 267.068 143.407C267.068 141.423 265.46 139.815 263.477 139.815Z" fill="#101020"/>
<path d="M211.5 139.815C209.517 139.815 207.909 141.423 207.909 143.407C207.909 145.392 209.517 147 211.5 147C213.483 147 215.09 145.392 215.09 143.407C215.09 141.423 213.483 139.815 211.5 139.815Z" fill="#FF0B53"/>
<path d="M159.523 139.815C157.54 139.815 155.932 141.423 155.932 143.407C155.932 145.392 157.54 147 159.523 147C161.506 147 163.114 145.392 163.114 143.407C163.114 141.423 161.506 139.815 159.523 139.815Z" fill="#FF0B53"/>
<path d="M103.955 143.407C103.955 141.434 105.573 139.815 107.545 139.815C109.517 139.815 111.136 141.434 111.136 143.407C111.136 145.38 109.517 147 107.545 147C105.544 147 103.955 145.38 103.955 143.407Z" fill="#FF0B53"/>
<path d="M55.5679 139.815C53.5847 139.815 51.9771 141.423 51.9771 143.407C51.9771 145.392 53.5847 147 55.5679 147C57.551 147 59.1586 145.392 59.1586 143.407C59.1586 141.423 57.551 139.815 55.5679 139.815Z" fill="#FF0B53"/>
<path d="M3.59116 139.815C1.60805 139.815 0.000426759 141.423 0.000426932 143.407C0.000427105 145.392 1.60805 147 3.59116 147C5.57426 147 7.18188 145.392 7.18188 143.407C7.18188 141.423 5.57426 139.815 3.59116 139.815Z" fill="#FF0B53"/>
<path d="M419.409 104.861C417.426 104.861 415.819 106.47 415.819 108.454C415.819 110.438 417.426 112.046 419.409 112.046C421.392 112.046 423 110.438 423 108.454C423 106.47 421.392 104.861 419.409 104.861Z" fill="#FF0B53"/>
<path d="M367.432 104.861C365.449 104.861 363.841 106.47 363.841 108.454C363.841 110.438 365.449 112.046 367.432 112.046C369.415 112.046 371.022 110.438 371.022 108.454C371.022 106.47 369.415 104.861 367.432 104.861Z" fill="#FF0B53"/>
<path d="M315.455 104.861C313.472 104.861 311.864 106.47 311.864 108.454C311.864 110.438 313.472 112.046 315.455 112.046C317.438 112.046 319.046 110.438 319.046 108.454C319.046 106.47 317.438 104.861 315.455 104.861Z" fill="#FF0B53"/>
<path d="M263.477 104.861C261.494 104.861 259.887 106.47 259.887 108.454C259.887 110.438 261.494 112.046 263.477 112.046C265.46 112.046 267.068 110.438 267.068 108.454C267.068 106.47 265.46 104.861 263.477 104.861Z" fill="#FF0B53"/>
<path d="M211.5 104.861C209.517 104.861 207.909 106.47 207.909 108.454C207.909 110.438 209.517 112.046 211.5 112.046C213.483 112.046 215.09 110.438 215.09 108.454C215.09 106.47 213.483 104.861 211.5 104.861Z" fill="#FF0B53"/>
<path d="M159.523 104.861C157.54 104.861 155.932 106.47 155.932 108.454C155.932 110.438 157.54 112.046 159.523 112.046C161.506 112.046 163.114 110.438 163.114 108.454C163.114 106.47 161.506 104.861 159.523 104.861Z" fill="#101020"/>
<path d="M103.955 108.454C103.955 106.481 105.573 104.861 107.545 104.861C109.517 104.861 111.136 106.481 111.136 108.454C111.136 110.427 109.517 112.046 107.545 112.046C105.544 112.046 103.955 110.427 103.955 108.454Z" fill="#FF0B53"/>
<path d="M55.5679 104.861C53.5847 104.861 51.9771 106.47 51.9771 108.454C51.9771 110.438 53.5847 112.046 55.5679 112.046C57.551 112.046 59.1586 110.438 59.1586 108.454C59.1586 106.47 57.551 104.861 55.5679 104.861Z" fill="#FF0B53"/>
<path d="M3.59116 104.861C1.60805 104.861 0.000426759 106.47 0.000426932 108.454C0.000427105 110.438 1.60805 112.046 3.59116 112.046C5.57426 112.046 7.18188 110.438 7.18188 108.454C7.18188 106.47 5.57426 104.861 3.59116 104.861Z" fill="#101020"/>
<path d="M419.409 69.9074C417.426 69.9074 415.819 71.5159 415.819 73.5C415.819 75.4841 417.426 77.0925 419.409 77.0925C421.392 77.0925 423 75.4841 423 73.5C423 71.5159 421.392 69.9074 419.409 69.9074Z" fill="#FF0B53"/>
<path d="M367.432 69.9074C365.449 69.9074 363.841 71.5159 363.841 73.5C363.841 75.4841 365.449 77.0925 367.432 77.0925C369.415 77.0925 371.022 75.4841 371.022 73.5C371.022 71.5159 369.415 69.9074 367.432 69.9074Z" fill="#101020"/>
<path d="M315.455 69.9074C313.472 69.9074 311.864 71.5159 311.864 73.5C311.864 75.4841 313.472 77.0925 315.455 77.0925C317.438 77.0925 319.046 75.4841 319.046 73.5C319.046 71.5159 317.438 69.9074 315.455 69.9074Z" fill="#FF0B53"/>
<path d="M263.477 69.9074C261.494 69.9074 259.887 71.5159 259.887 73.5C259.887 75.4841 261.494 77.0925 263.477 77.0925C265.46 77.0925 267.068 75.4841 267.068 73.5C267.068 71.5159 265.46 69.9074 263.477 69.9074Z" fill="#FF0B53"/>
<path d="M211.5 69.9074C209.517 69.9074 207.909 71.5159 207.909 73.5C207.909 75.4841 209.517 77.0925 211.5 77.0925C213.483 77.0925 215.09 75.4841 215.09 73.5C215.09 71.5159 213.483 69.9074 211.5 69.9074Z" fill="#FF0B53"/>
<path d="M159.523 69.9074C157.54 69.9074 155.932 71.5159 155.932 73.5C155.932 75.4841 157.54 77.0925 159.523 77.0925C161.506 77.0925 163.114 75.4841 163.114 73.5C163.114 71.5159 161.506 69.9074 159.523 69.9074Z" fill="#FF0B53"/>
<path d="M103.955 73.5C103.955 71.527 105.573 69.9074 107.545 69.9074C109.517 69.9074 111.136 71.527 111.136 73.5C111.136 75.4729 109.517 77.0925 107.545 77.0925C105.544 77.0925 103.955 75.4729 103.955 73.5Z" fill="#101020"/>
<path d="M55.5679 69.9074C53.5847 69.9074 51.9771 71.5159 51.9771 73.5C51.9771 75.4841 53.5847 77.0925 55.5679 77.0925C57.551 77.0925 59.1586 75.4841 59.1586 73.5C59.1586 71.5159 57.551 69.9074 55.5679 69.9074Z" fill="#FF0B53"/>
<path d="M3.59116 69.9074C1.60805 69.9074 0.000426759 71.5159 0.000426932 73.5C0.000427105 75.4841 1.60805 77.0925 3.59116 77.0925C5.57426 77.0925 7.18188 75.4841 7.18188 73.5C7.18188 71.5159 5.57426 69.9074 3.59116 69.9074Z" fill="#FF0B53"/>
<path d="M419.409 34.9537C417.426 34.9537 415.819 36.5621 415.819 38.5462C415.819 40.5304 417.426 42.1388 419.409 42.1388C421.392 42.1388 423 40.5304 423 38.5462C423 36.5621 421.392 34.9537 419.409 34.9537Z" fill="#FF0B53"/>
<path d="M367.432 34.9537C365.449 34.9537 363.841 36.5621 363.841 38.5462C363.841 40.5304 365.449 42.1388 367.432 42.1388C369.415 42.1388 371.022 40.5304 371.022 38.5462C371.022 36.5621 369.415 34.9537 367.432 34.9537Z" fill="#FF0B53"/>
<path d="M315.455 34.9537C313.472 34.9537 311.864 36.5621 311.864 38.5462C311.864 40.5304 313.472 42.1388 315.455 42.1388C317.438 42.1388 319.046 40.5304 319.046 38.5462C319.046 36.5621 317.438 34.9537 315.455 34.9537Z" fill="#101020"/>
<path d="M263.477 34.9537C261.494 34.9537 259.887 36.5621 259.887 38.5462C259.887 40.5304 261.494 42.1388 263.477 42.1388C265.46 42.1388 267.068 40.5304 267.068 38.5462C267.068 36.5621 265.46 34.9537 263.477 34.9537Z" fill="#FF0B53"/>
<path d="M211.5 34.9537C209.517 34.9537 207.909 36.5621 207.909 38.5462C207.909 40.5304 209.517 42.1388 211.5 42.1388C213.483 42.1388 215.09 40.5304 215.09 38.5462C215.09 36.5621 213.483 34.9537 211.5 34.9537Z" fill="#101020"/>
<path d="M159.523 34.9537C157.54 34.9537 155.932 36.5621 155.932 38.5462C155.932 40.5304 157.54 42.1388 159.523 42.1388C161.506 42.1388 163.114 40.5304 163.114 38.5462C163.114 36.5621 161.506 34.9537 159.523 34.9537Z" fill="#FF0B53"/>
<path d="M103.955 38.5462C103.955 36.5733 105.573 34.9537 107.545 34.9537C109.517 34.9537 111.136 36.5733 111.136 38.5462C111.136 40.5192 109.517 42.1388 107.545 42.1388C105.544 42.1388 103.955 40.5192 103.955 38.5462Z" fill="#FF0B53"/>
<path d="M55.5679 34.9537C53.5847 34.9537 51.9771 36.5621 51.9771 38.5462C51.9771 40.5304 53.5847 42.1388 55.5679 42.1388C57.551 42.1388 59.1586 40.5304 59.1586 38.5462C59.1586 36.5621 57.551 34.9537 55.5679 34.9537Z" fill="#FF0B53"/>
<path d="M3.59116 34.9537C1.60805 34.9537 0.000426759 36.5621 0.000426932 38.5462C0.000427105 40.5304 1.60805 42.1388 3.59116 42.1388C5.57426 42.1388 7.18188 40.5304 7.18188 38.5462C7.18188 36.5621 5.57426 34.9537 3.59116 34.9537Z" fill="#FF0B53"/>
<path d="M419.409 7.70847e-05C417.426 7.72581e-05 415.819 1.60851 415.819 3.59262C415.819 5.57674 417.426 7.18518 419.409 7.18518C421.392 7.18518 423 5.57674 423 3.59262C423 1.60851 421.392 7.69113e-05 419.409 7.70847e-05Z" fill="#FF0B53"/>
<path d="M367.432 7.70847e-05C365.449 7.72581e-05 363.841 1.60851 363.841 3.59262C363.841 5.57674 365.449 7.18518 367.432 7.18518C369.415 7.18518 371.022 5.57674 371.022 3.59262C371.022 1.60851 369.415 7.69113e-05 367.432 7.70847e-05Z" fill="#FF0B53"/>
<path d="M315.455 7.70847e-05C313.472 7.72581e-05 311.864 1.60851 311.864 3.59262C311.864 5.57674 313.472 7.18518 315.455 7.18518C317.438 7.18518 319.046 5.57674 319.046 3.59262C319.046 1.60851 317.438 7.69113e-05 315.455 7.70847e-05Z" fill="#FF0B53"/>
<path d="M263.477 7.70847e-05C261.494 7.72581e-05 259.887 1.60851 259.887 3.59262C259.887 5.57674 261.494 7.18518 263.477 7.18518C265.46 7.18518 267.068 5.57674 267.068 3.59262C267.068 1.60851 265.46 7.69113e-05 263.477 7.70847e-05Z" fill="#FF0B53"/>
<path d="M211.5 7.70847e-05C209.517 7.72581e-05 207.909 1.60851 207.909 3.59262C207.909 5.57674 209.517 7.18518 211.5 7.18518C213.483 7.18518 215.09 5.57674 215.09 3.59262C215.09 1.60851 213.483 7.69113e-05 211.5 7.70847e-05Z" fill="#FF0B53"/>
<path d="M159.523 7.70847e-05C157.54 7.72581e-05 155.932 1.60851 155.932 3.59262C155.932 5.57674 157.54 7.18518 159.523 7.18518C161.506 7.18518 163.114 5.57674 163.114 3.59262C163.114 1.60851 161.506 7.69113e-05 159.523 7.70847e-05Z" fill="#FF0B53"/>
<path d="M103.955 3.59262C103.955 1.61966 105.573 7.72571e-05 107.545 7.70847e-05C109.517 7.69123e-05 111.136 1.61966 111.136 3.59262C111.136 5.56558 109.517 7.18518 107.545 7.18518C105.544 7.18518 103.955 5.56558 103.955 3.59262Z" fill="#FF0B53"/>
<path d="M55.5679 7.70847e-05C53.5847 7.72581e-05 51.9771 1.60851 51.9771 3.59262C51.9771 5.57674 53.5847 7.18518 55.5679 7.18518C57.551 7.18518 59.1586 5.57674 59.1586 3.59262C59.1586 1.60851 57.551 7.69113e-05 55.5679 7.70847e-05Z" fill="#101020"/>
<path d="M3.59116 7.70847e-05C1.60805 7.72581e-05 0.000426759 1.60851 0.000426932 3.59262C0.000427105 5.57674 1.60805 7.18518 3.59116 7.18518C5.57426 7.18518 7.18188 5.57674 7.18188 3.59262C7.18188 1.60851 5.57426 7.69113e-05 3.59116 7.70847e-05Z" fill="#101020"/>
</g>
<defs>
<clipPath id="clip0_1_260">
<rect width="423" height="147" fill="white" transform="translate(423 147) rotate(180)"/>
</clipPath>
</defs>
</svg>
