<svg width="147" height="423" fill="none" xmlns="http://www.w3.org/2000/svg"><g clip-path="url(#a)"><path d="M7.185 419.409a3.591 3.591 0 0 0-3.592-3.59 3.591 3.591 0 1 0 0 7.181 3.592 3.592 0 0 0 3.592-3.591Z" fill="#fff"/><path d="M7.185 367.432a3.592 3.592 0 0 0-7.185 0 3.591 3.591 0 0 0 3.593 3.59 3.591 3.591 0 0 0 3.592-3.59ZM7.185 315.455a3.592 3.592 0 1 0-7.184.002 3.592 3.592 0 0 0 7.184-.002Z" fill="#FF0B53"/><path d="M7.185 263.477a3.591 3.591 0 0 0-3.592-3.59 3.591 3.591 0 1 0 0 7.181 3.592 3.592 0 0 0 3.592-3.591Z" fill="#fff"/><path d="M7.185 211.5a3.592 3.592 0 0 0-7.185 0 3.591 3.591 0 0 0 3.593 3.59 3.591 3.591 0 0 0 3.592-3.59ZM7.185 159.523a3.592 3.592 0 1 0-7.184.002 3.592 3.592 0 0 0 7.184-.002ZM3.593 103.955a3.606 3.606 0 0 1 3.592 3.591c0 1.971-1.62 3.59-3.592 3.59A3.606 3.606 0 0 1 0 107.546a3.587 3.587 0 0 1 3.593-3.591ZM7.185 55.568a3.592 3.592 0 0 0-3.592-3.59 3.592 3.592 0 1 0 3.592 3.59ZM7.185 3.591A3.592 3.592 0 0 0 3.593.001a3.592 3.592 0 1 0 3.592 3.59ZM42.139 419.409a3.591 3.591 0 0 0-3.593-3.59 3.591 3.591 0 1 0 0 7.181 3.592 3.592 0 0 0 3.593-3.591ZM42.139 367.432a3.592 3.592 0 0 0-7.185 0 3.591 3.591 0 0 0 3.592 3.59 3.591 3.591 0 0 0 3.593-3.59ZM42.139 315.455a3.592 3.592 0 1 0-7.184.002 3.592 3.592 0 0 0 7.184-.002ZM42.139 263.477a3.591 3.591 0 0 0-3.593-3.59 3.591 3.591 0 1 0 0 7.181 3.592 3.592 0 0 0 3.593-3.591ZM42.139 211.5a3.592 3.592 0 0 0-7.185 0 3.591 3.591 0 0 0 3.592 3.59 3.591 3.591 0 0 0 3.593-3.59Z" fill="#FF0B53"/><path d="M42.139 159.523a3.592 3.592 0 1 0-7.184.002 3.592 3.592 0 0 0 7.184-.002Z" fill="#fff"/><path d="M38.546 103.955a3.606 3.606 0 0 1 3.593 3.591c0 1.971-1.62 3.59-3.593 3.59a3.606 3.606 0 0 1-3.592-3.59 3.587 3.587 0 0 1 3.592-3.591ZM42.139 55.568a3.592 3.592 0 0 0-3.593-3.59 3.592 3.592 0 1 0 3.593 3.59Z" fill="#FF0B53"/><path d="M42.139 3.591a3.592 3.592 0 0 0-3.593-3.59 3.592 3.592 0 1 0 3.593 3.59Z" fill="#fff"/><path d="M77.093 419.409a3.591 3.591 0 0 0-3.593-3.59 3.591 3.591 0 1 0 0 7.181 3.592 3.592 0 0 0 3.593-3.591Z" fill="#FF0B53"/><path d="M77.093 367.432a3.592 3.592 0 0 0-7.186 0 3.591 3.591 0 0 0 3.593 3.59 3.591 3.591 0 0 0 3.593-3.59Z" fill="#fff"/><path d="M77.093 315.455a3.592 3.592 0 1 0-7.184.002 3.592 3.592 0 0 0 7.183-.002ZM77.093 263.477a3.591 3.591 0 0 0-3.593-3.59 3.591 3.591 0 1 0 0 7.181 3.592 3.592 0 0 0 3.593-3.591ZM77.093 211.5a3.592 3.592 0 0 0-7.186 0 3.591 3.591 0 0 0 3.593 3.59 3.591 3.591 0 0 0 3.593-3.59ZM77.093 159.523a3.592 3.592 0 1 0-7.184.002 3.592 3.592 0 0 0 7.183-.002Z" fill="#FF0B53"/><path d="M73.5 103.955a3.606 3.606 0 0 1 3.593 3.591c0 1.971-1.62 3.59-3.593 3.59a3.606 3.606 0 0 1-3.593-3.59 3.587 3.587 0 0 1 3.593-3.591Z" fill="#fff"/><path d="M77.093 55.568a3.592 3.592 0 0 0-3.593-3.59 3.592 3.592 0 1 0 3.593 3.59ZM77.093 3.591A3.592 3.592 0 0 0 73.5.001a3.592 3.592 0 1 0 3.593 3.59ZM112.046 419.409a3.59 3.59 0 0 0-3.592-3.59 3.592 3.592 0 1 0 3.592 3.59ZM112.046 367.432a3.592 3.592 0 0 0-7.185 0 3.592 3.592 0 0 0 3.593 3.59 3.59 3.59 0 0 0 3.592-3.59Z" fill="#FF0B53"/><path d="M112.046 315.455a3.592 3.592 0 0 0-7.185 0 3.592 3.592 0 0 0 7.185 0Z" fill="#fff"/><path d="M112.046 263.477a3.59 3.59 0 0 0-3.592-3.59 3.592 3.592 0 1 0 3.592 3.59Z" fill="#FF0B53"/><path d="M112.046 211.5a3.592 3.592 0 0 0-7.185 0 3.592 3.592 0 0 0 3.593 3.59 3.59 3.59 0 0 0 3.592-3.59Z" fill="#fff"/><path d="M112.046 159.523a3.592 3.592 0 0 0-7.185 0 3.592 3.592 0 0 0 7.185 0ZM108.454 103.955a3.606 3.606 0 0 1 3.592 3.591 3.606 3.606 0 0 1-3.592 3.59 3.606 3.606 0 0 1-3.593-3.59 3.587 3.587 0 0 1 3.593-3.591ZM112.046 55.568a3.592 3.592 0 0 0-7.185 0 3.592 3.592 0 0 0 7.185 0ZM112.046 3.591a3.592 3.592 0 0 0-7.185 0 3.592 3.592 0 0 0 7.185 0ZM147 419.409a3.59 3.59 0 0 0-3.593-3.59 3.59 3.59 0 1 0 0 7.181 3.592 3.592 0 0 0 3.593-3.591ZM147 367.432a3.592 3.592 0 0 0-7.185 0 3.59 3.59 0 0 0 3.592 3.59 3.59 3.59 0 0 0 3.593-3.59ZM147 315.455a3.592 3.592 0 1 0-7.184.002 3.592 3.592 0 0 0 7.184-.002ZM147 263.477a3.59 3.59 0 0 0-3.593-3.59 3.59 3.59 0 1 0 0 7.181 3.592 3.592 0 0 0 3.593-3.591ZM147 211.5a3.592 3.592 0 0 0-7.185 0 3.59 3.59 0 0 0 3.592 3.59A3.59 3.59 0 0 0 147 211.5ZM147 159.523a3.592 3.592 0 1 0-7.184.002 3.592 3.592 0 0 0 7.184-.002ZM143.407 103.955a3.607 3.607 0 0 1 3.593 3.591c0 1.971-1.62 3.59-3.593 3.59a3.606 3.606 0 0 1-3.592-3.59 3.586 3.586 0 0 1 3.592-3.591Z" fill="#FF0B53"/><path d="M147 55.568a3.591 3.591 0 0 0-3.593-3.59 3.591 3.591 0 1 0 0 7.18 3.591 3.591 0 0 0 3.593-3.59ZM147 3.591a3.591 3.591 0 0 0-3.593-3.59 3.591 3.591 0 1 0 0 7.18A3.591 3.591 0 0 0 147 3.592Z" fill="#fff"/></g><defs><clipPath id="a"><path fill="#fff" transform="matrix(0 -1 1 0 0 423)" d="M0 0h423v147H0z"/></clipPath></defs></svg>