<svg width="423" height="147" fill="none" xmlns="http://www.w3.org/2000/svg"><g clip-path="url(#a)"><path d="M419.409 139.815a3.59 3.59 0 0 0-3.59 3.592 3.59 3.59 0 1 0 7.181 0 3.592 3.592 0 0 0-3.591-3.592Z" fill="#101020"/><path d="M367.432 139.815a3.592 3.592 0 0 0 0 7.185 3.59 3.59 0 0 0 3.59-3.593 3.59 3.59 0 0 0-3.59-3.592ZM315.455 139.815a3.592 3.592 0 1 0 .002 7.186 3.592 3.592 0 0 0-.002-7.186Z" fill="#FF0B53"/><path d="M263.477 139.815a3.59 3.59 0 0 0-3.59 3.592 3.59 3.59 0 1 0 7.181 0 3.592 3.592 0 0 0-3.591-3.592Z" fill="#101020"/><path d="M211.5 139.815a3.592 3.592 0 0 0 0 7.185 3.59 3.59 0 0 0 3.59-3.593 3.59 3.59 0 0 0-3.59-3.592ZM159.523 139.815a3.592 3.592 0 1 0 .002 7.186 3.592 3.592 0 0 0-.002-7.186ZM103.955 143.407a3.605 3.605 0 0 1 3.59-3.592 3.606 3.606 0 0 1 3.591 3.592 3.607 3.607 0 0 1-3.591 3.593 3.587 3.587 0 0 1-3.59-3.593ZM55.568 139.815a3.591 3.591 0 0 0-3.59 3.592 3.591 3.591 0 1 0 3.59-3.592ZM3.591 139.815a3.591 3.591 0 0 0-3.59 3.592 3.591 3.591 0 1 0 3.59-3.592ZM419.409 104.861a3.592 3.592 0 0 0-3.59 3.593 3.59 3.59 0 1 0 7.181 0 3.592 3.592 0 0 0-3.591-3.593ZM367.432 104.861a3.592 3.592 0 0 0 0 7.185 3.59 3.59 0 0 0 3.59-3.592 3.592 3.592 0 0 0-3.59-3.593ZM315.455 104.861a3.592 3.592 0 0 0 0 7.185 3.592 3.592 0 0 0 0-7.185ZM263.477 104.861a3.592 3.592 0 0 0-3.59 3.593 3.59 3.59 0 1 0 7.181 0 3.592 3.592 0 0 0-3.591-3.593ZM211.5 104.861a3.592 3.592 0 0 0 0 7.185 3.59 3.59 0 0 0 3.59-3.592 3.592 3.592 0 0 0-3.59-3.593Z" fill="#FF0B53"/><path d="M159.523 104.861a3.592 3.592 0 0 0 0 7.185 3.592 3.592 0 0 0 0-7.185Z" fill="#101020"/><path d="M103.955 108.454a3.606 3.606 0 0 1 3.59-3.593 3.607 3.607 0 0 1 3.591 3.593 3.606 3.606 0 0 1-3.591 3.592 3.586 3.586 0 0 1-3.59-3.592ZM55.568 104.861a3.592 3.592 0 0 0 0 7.185 3.592 3.592 0 0 0 0-7.185Z" fill="#FF0B53"/><path d="M3.591 104.861a3.592 3.592 0 0 0 0 7.185 3.592 3.592 0 0 0 0-7.185Z" fill="#101020"/><path d="M419.409 69.907a3.591 3.591 0 0 0-3.59 3.593 3.591 3.591 0 1 0 7.181 0 3.592 3.592 0 0 0-3.591-3.593Z" fill="#FF0B53"/><path d="M367.432 69.907a3.592 3.592 0 0 0 0 7.186 3.591 3.591 0 0 0 3.59-3.593 3.591 3.591 0 0 0-3.59-3.593Z" fill="#101020"/><path d="M315.455 69.907a3.592 3.592 0 1 0 .002 7.184 3.592 3.592 0 0 0-.002-7.184ZM263.477 69.907a3.591 3.591 0 0 0-3.59 3.593 3.591 3.591 0 1 0 7.181 0 3.592 3.592 0 0 0-3.591-3.593ZM211.5 69.907a3.592 3.592 0 0 0 0 7.186 3.591 3.591 0 0 0 3.59-3.593 3.591 3.591 0 0 0-3.59-3.593ZM159.523 69.907a3.592 3.592 0 1 0 .002 7.184 3.592 3.592 0 0 0-.002-7.184Z" fill="#FF0B53"/><path d="M103.955 73.5a3.605 3.605 0 0 1 3.59-3.593 3.606 3.606 0 0 1 3.591 3.593 3.606 3.606 0 0 1-3.591 3.593 3.587 3.587 0 0 1-3.59-3.593Z" fill="#101020"/><path d="M55.568 69.907a3.592 3.592 0 0 0-3.59 3.593 3.592 3.592 0 1 0 3.59-3.593ZM3.591 69.907A3.592 3.592 0 0 0 .001 73.5a3.592 3.592 0 1 0 3.59-3.593ZM419.409 34.954a3.591 3.591 0 0 0-3.59 3.592 3.591 3.591 0 1 0 7.181 0 3.592 3.592 0 0 0-3.591-3.592ZM367.432 34.954a3.592 3.592 0 0 0 0 7.185 3.591 3.591 0 0 0 3.59-3.593 3.591 3.591 0 0 0-3.59-3.592Z" fill="#FF0B53"/><path d="M315.455 34.954a3.592 3.592 0 1 0 .002 7.184 3.592 3.592 0 0 0-.002-7.184Z" fill="#101020"/><path d="M263.477 34.954a3.591 3.591 0 0 0-3.59 3.592 3.591 3.591 0 1 0 7.181 0 3.592 3.592 0 0 0-3.591-3.592Z" fill="#FF0B53"/><path d="M211.5 34.954a3.592 3.592 0 0 0 0 7.185 3.591 3.591 0 0 0 3.59-3.593 3.591 3.591 0 0 0-3.59-3.592Z" fill="#101020"/><path d="M159.523 34.954a3.592 3.592 0 1 0 .002 7.184 3.592 3.592 0 0 0-.002-7.184ZM103.955 38.546a3.605 3.605 0 0 1 3.59-3.592 3.606 3.606 0 0 1 3.591 3.592 3.606 3.606 0 0 1-3.591 3.593 3.587 3.587 0 0 1-3.59-3.593ZM55.568 34.954a3.592 3.592 0 0 0-3.59 3.592 3.592 3.592 0 1 0 3.59-3.592ZM3.591 34.954a3.592 3.592 0 0 0-3.59 3.592 3.592 3.592 0 1 0 3.59-3.592ZM419.409 0a3.591 3.591 0 0 0-3.59 3.593 3.591 3.591 0 1 0 7.181 0A3.592 3.592 0 0 0 419.409 0ZM367.432 0a3.592 3.592 0 0 0 0 7.185 3.591 3.591 0 0 0 3.59-3.592A3.591 3.591 0 0 0 367.432 0ZM315.455 0a3.592 3.592 0 1 0 .002 7.184A3.592 3.592 0 0 0 315.455 0ZM263.477 0a3.591 3.591 0 0 0-3.59 3.593 3.591 3.591 0 1 0 7.181 0A3.592 3.592 0 0 0 263.477 0ZM211.5 0a3.592 3.592 0 0 0 0 7.185 3.591 3.591 0 0 0 3.59-3.592A3.591 3.591 0 0 0 211.5 0ZM159.523 0a3.592 3.592 0 1 0 .002 7.184A3.592 3.592 0 0 0 159.523 0ZM103.955 3.593A3.605 3.605 0 0 1 107.545 0a3.606 3.606 0 0 1 3.591 3.593 3.606 3.606 0 0 1-3.591 3.592 3.587 3.587 0 0 1-3.59-3.592Z" fill="#FF0B53"/><path d="M55.568 0a3.592 3.592 0 0 0-3.59 3.593A3.592 3.592 0 1 0 55.567 0ZM3.591 0a3.592 3.592 0 0 0-3.59 3.593A3.592 3.592 0 1 0 3.59 0Z" fill="#101020"/></g><defs><clipPath id="a"><path fill="#fff" transform="rotate(180 211.5 73.5)" d="M0 0h423v147H0z"/></clipPath></defs></svg>