<svg width="612" height="1040" viewBox="0 0 612 1040" fill="none" xmlns="http://www.w3.org/2000/svg">
<g clip-path="url(#clip0_1_337)">
<path d="M547.172 664.012C570.439 664.012 589.302 645.122 589.302 621.82C589.302 598.518 570.439 579.628 547.172 579.628C523.904 579.628 505.042 598.518 505.042 621.82C505.042 645.122 523.904 664.012 547.172 664.012Z" fill="#17191D"/>
<path d="M628.34 541.94C662.282 507.948 662.282 452.837 628.34 418.846C594.399 384.854 539.368 384.854 505.427 418.846C471.485 452.837 471.485 507.948 505.427 541.94C539.368 575.932 594.398 575.932 628.34 541.94Z" fill="#17191D"/>
<path d="M591.956 542.31C639.957 542.31 678.87 503.34 678.87 455.268C678.87 407.196 639.957 368.226 591.956 368.226C543.955 368.226 505.042 407.196 505.042 455.268C505.042 503.34 543.955 542.31 591.956 542.31Z" fill="#FF0B53"/>
<path d="M561.769 1040C609.771 1040 648.683 1001.03 648.683 952.958C648.683 904.886 609.771 865.917 561.769 865.917C513.768 865.917 474.856 904.886 474.856 952.958C474.856 1001.03 513.768 1040 561.769 1040Z" fill="#FF0B53"/>
<path d="M406.309 174.083C454.31 174.083 493.222 135.114 493.222 87.0417C493.222 38.9699 454.31 0 406.309 0C358.307 0 319.395 38.9699 319.395 87.0417C319.395 135.114 358.307 174.083 406.309 174.083Z" fill="#FF0B53"/>
<path d="M760.36 253.322C808.287 205.324 808.287 127.504 760.36 79.5058C712.432 31.5079 634.727 31.5079 586.799 79.5058C538.872 127.504 538.872 205.324 586.799 253.322C634.727 301.319 712.432 301.319 760.36 253.322Z" stroke="#FF0B53" stroke-width="20" stroke-miterlimit="10"/>
<path d="M463.322 767.568C482.688 722.42 461.841 670.097 416.759 650.702C371.677 631.307 319.431 652.184 300.065 697.333C280.698 742.481 301.545 794.804 346.627 814.199C391.709 833.594 443.955 812.717 463.322 767.568Z" stroke="#FF0B53" stroke-width="20" stroke-miterlimit="10"/>
<path d="M694.14 643.457V823.902L547.172 733.67L694.14 643.457Z" fill="#17191D"/>
<path d="M654.346 643.457V823.902L507.378 733.67L654.346 643.457Z" stroke="#17191D" stroke-miterlimit="10"/>
<path d="M359.03 117.007C359.03 127.143 346.078 127.143 346.078 137.279C346.078 147.415 359.03 147.415 359.03 157.551C359.03 167.686 346.078 167.686 346.078 177.822C346.078 187.958 359.03 187.958 359.03 198.094C359.03 208.23 346.078 208.23 346.078 218.366C346.078 228.502 359.03 228.502 359.03 238.638C359.03 248.774 346.078 248.774 346.078 258.928C346.078 269.064 359.03 269.064 359.03 279.218" stroke="#17191D" stroke-miterlimit="10"/>
<path d="M281.388 251.858C231.543 301.775 231.543 382.721 281.388 432.639C331.232 482.557 412.059 482.557 461.904 432.639L281.388 251.858Z" fill="#FF0B53"/>
<path d="M539.636 410.35C611.13 408.244 667.383 348.494 665.28 276.894C663.177 205.295 603.515 148.959 532.021 151.065C460.527 153.171 404.274 212.921 406.377 284.52C408.479 356.12 468.142 412.455 539.636 410.35Z" stroke="#17191D" stroke-width="2" stroke-linecap="round" stroke-linejoin="round"/>
<path d="M539.436 389.831C599.626 387.822 646.794 337.329 644.788 277.05C642.783 216.771 592.363 169.534 532.173 171.542C471.983 173.551 424.815 224.045 426.821 284.323C428.826 344.602 479.246 391.839 539.436 389.831Z" stroke="#17191D" stroke-width="2" stroke-linecap="round" stroke-linejoin="round"/>
<path d="M550.012 368.285C598.311 360.435 631.11 314.86 623.271 266.49C615.433 218.121 569.925 185.273 521.627 193.124C473.328 200.974 440.529 246.548 448.368 294.918C456.206 343.287 501.714 376.135 550.012 368.285Z" stroke="#17191D" stroke-width="2" stroke-linecap="round" stroke-linejoin="round"/>
<path d="M550.226 347.387C587.004 339.409 610.361 303.082 602.394 266.249C594.427 229.417 558.154 206.026 521.375 214.004C484.597 221.983 461.24 258.31 469.207 295.142C477.174 331.975 513.447 355.366 550.226 347.387Z" stroke="#17191D" stroke-width="2" stroke-linecap="round" stroke-linejoin="round"/>
<path d="M554.069 324.828C578.401 314.734 589.955 286.798 579.877 262.43C569.798 238.062 541.902 226.491 517.57 236.584C493.238 246.678 481.684 274.615 491.763 298.983C501.842 323.35 529.737 334.922 554.069 324.828Z" stroke="#17191D" stroke-width="2" stroke-linecap="round" stroke-linejoin="round"/>
<path d="M318.917 441.482C318.917 440.277 317.944 439.302 316.741 439.302C315.537 439.302 314.564 440.277 314.564 441.482C314.564 442.687 315.537 443.661 316.741 443.661C317.944 443.661 318.917 442.687 318.917 441.482Z" fill="#EAEAEA"/>
<path d="M354.73 441.482C354.73 440.277 353.757 439.302 352.554 439.302C351.351 439.302 350.377 440.277 350.377 441.482C350.377 442.687 351.351 443.661 352.554 443.661C353.757 443.661 354.73 442.687 354.73 441.482Z" fill="#EAEAEA"/>
<path d="M390.561 441.482C390.561 440.277 389.588 439.302 388.384 439.302C387.181 439.302 386.208 440.277 386.208 441.482C386.208 442.687 387.181 443.661 388.384 443.661C389.588 443.661 390.561 442.687 390.561 441.482Z" fill="#EAEAEA"/>
<path d="M426.374 441.482C426.374 440.277 425.401 439.302 424.197 439.302C422.994 439.302 422.021 440.277 422.021 441.482C422.021 442.687 422.994 443.661 424.197 443.661C425.401 443.661 426.374 442.687 426.374 441.482Z" fill="#EAEAEA"/>
<path d="M462.204 441.482C462.204 440.277 461.231 439.302 460.028 439.302C458.825 439.302 457.852 440.277 457.852 441.482C457.852 442.687 458.825 443.661 460.028 443.661C461.231 443.661 462.204 442.687 462.204 441.482Z" fill="#17191D"/>
<path d="M318.917 474.583C318.917 473.378 317.944 472.403 316.741 472.403C315.537 472.403 314.564 473.378 314.564 474.583C314.564 475.788 315.537 476.762 316.741 476.762C317.944 476.762 318.917 475.788 318.917 474.583Z" fill="#17191D"/>
<path d="M354.73 474.583C354.73 473.378 353.757 472.403 352.554 472.403C351.351 472.403 350.377 473.378 350.377 474.583C350.377 475.788 351.351 476.762 352.554 476.762C353.757 476.762 354.73 475.788 354.73 474.583Z" fill="#17191D"/>
<path d="M390.561 474.583C390.561 473.378 389.588 472.403 388.384 472.403C387.181 472.403 386.208 473.378 386.208 474.583C386.208 475.788 387.181 476.762 388.384 476.762C389.588 476.762 390.561 475.788 390.561 474.583Z" fill="#17191D"/>
<path d="M426.374 474.583C426.374 473.378 425.401 472.403 424.197 472.403C422.994 472.403 422.021 473.378 422.021 474.583C422.021 475.788 422.994 476.762 424.197 476.762C425.401 476.762 426.374 475.788 426.374 474.583Z" fill="#17191D"/>
<path d="M462.204 474.583C462.204 473.378 461.231 472.403 460.028 472.403C458.825 472.403 457.852 473.378 457.852 474.583C457.852 475.788 458.825 476.762 460.028 476.762C461.231 476.762 462.204 475.788 462.204 474.583Z" fill="#17191D"/>
<path d="M318.917 507.684C318.917 506.479 317.944 505.505 316.741 505.505C315.537 505.505 314.564 506.479 314.564 507.684C314.564 508.889 315.537 509.864 316.741 509.864C317.944 509.864 318.917 508.889 318.917 507.684Z" fill="#17191D"/>
<path d="M354.73 507.684C354.73 506.479 353.757 505.505 352.554 505.505C351.351 505.505 350.377 506.479 350.377 507.684C350.377 508.889 351.351 509.864 352.554 509.864C353.757 509.864 354.73 508.889 354.73 507.684Z" fill="#17191D"/>
<path d="M390.561 507.684C390.561 506.479 389.588 505.505 388.384 505.505C387.181 505.505 386.208 506.479 386.208 507.684C386.208 508.889 387.181 509.864 388.384 509.864C389.588 509.864 390.561 508.889 390.561 507.684Z" fill="#17191D"/>
<path d="M426.374 507.684C426.374 506.479 425.401 505.505 424.197 505.505C422.994 505.505 422.021 506.479 422.021 507.684C422.021 508.889 422.994 509.864 424.197 509.864C425.401 509.864 426.374 508.889 426.374 507.684Z" fill="#17191D"/>
<path d="M462.204 507.684C462.204 506.479 461.231 505.505 460.028 505.505C458.825 505.505 457.852 506.479 457.852 507.684C457.852 508.889 458.825 509.864 460.028 509.864C461.231 509.864 462.204 508.889 462.204 507.684Z" fill="#17191D"/>
<path d="M318.917 540.768C318.917 539.563 317.944 538.588 316.741 538.588C315.537 538.588 314.564 539.563 314.564 540.768C314.564 541.973 315.537 542.948 316.741 542.948C317.944 542.948 318.917 541.973 318.917 540.768Z" fill="#17191D"/>
<path d="M354.73 540.768C354.73 539.563 353.757 538.588 352.554 538.588C351.351 538.588 350.377 539.563 350.377 540.768C350.377 541.973 351.351 542.948 352.554 542.948C353.757 542.948 354.73 541.973 354.73 540.768Z" fill="#17191D"/>
<path d="M390.561 540.768C390.561 539.563 389.588 538.588 388.384 538.588C387.181 538.588 386.208 539.563 386.208 540.768C386.208 541.973 387.181 542.948 388.384 542.948C389.588 542.948 390.561 541.973 390.561 540.768Z" fill="#17191D"/>
<path d="M426.374 540.768C426.374 539.563 425.401 538.588 424.197 538.588C422.994 538.588 422.021 539.563 422.021 540.768C422.021 541.973 422.994 542.948 424.197 542.948C425.401 542.948 426.374 541.973 426.374 540.768Z" fill="#17191D"/>
<path d="M462.204 540.768C462.204 539.563 461.231 538.588 460.028 538.588C458.825 538.588 457.852 539.563 457.852 540.768C457.852 541.973 458.825 542.948 460.028 542.948C461.231 542.948 462.204 541.973 462.204 540.768Z" fill="#17191D"/>
<path d="M318.917 573.869C318.917 572.664 317.944 571.69 316.741 571.69C315.537 571.69 314.564 572.664 314.564 573.869C314.564 575.074 315.537 576.049 316.741 576.049C317.944 576.049 318.917 575.074 318.917 573.869Z" fill="#17191D"/>
<path d="M354.73 573.869C354.73 572.664 353.757 571.69 352.554 571.69C351.351 571.69 350.377 572.664 350.377 573.869C350.377 575.074 351.351 576.049 352.554 576.049C353.757 576.049 354.73 575.074 354.73 573.869Z" fill="#17191D"/>
<path d="M390.561 573.869C390.561 572.664 389.588 571.69 388.384 571.69C387.181 571.69 386.208 572.664 386.208 573.869C386.208 575.074 387.181 576.049 388.384 576.049C389.588 576.049 390.561 575.074 390.561 573.869Z" fill="#17191D"/>
<path d="M426.374 573.869C426.374 572.664 425.401 571.69 424.197 571.69C422.994 571.69 422.021 572.664 422.021 573.869C422.021 575.074 422.994 576.049 424.197 576.049C425.401 576.049 426.374 575.074 426.374 573.869Z" fill="#17191D"/>
<path d="M462.204 573.869C462.204 572.664 461.231 571.69 460.028 571.69C458.825 571.69 457.852 572.664 457.852 573.869C457.852 575.074 458.825 576.049 460.028 576.049C461.231 576.049 462.204 575.074 462.204 573.869Z" fill="#17191D"/>
<path d="M561.77 795.018C561.77 793.813 560.796 792.838 559.593 792.838C558.39 792.838 557.417 793.813 557.417 795.018C557.417 796.223 558.39 797.197 559.593 797.197C560.796 797.197 561.77 796.223 561.77 795.018Z" fill="#17191D"/>
<path d="M597.6 795.018C597.6 793.813 596.627 792.838 595.424 792.838C594.221 792.838 593.248 793.813 593.248 795.018C593.248 796.223 594.221 797.197 595.424 797.197C596.627 797.197 597.6 796.223 597.6 795.018Z" fill="#17191D"/>
<path d="M561.77 828.101C561.77 826.896 560.796 825.922 559.593 825.922C558.39 825.922 557.417 826.896 557.417 828.101C557.417 829.306 558.39 830.281 559.593 830.281C560.796 830.281 561.77 829.306 561.77 828.101Z" fill="#17191D"/>
<path d="M597.6 828.101C597.6 826.896 596.627 825.922 595.424 825.922C594.221 825.922 593.248 826.896 593.248 828.101C593.248 829.306 594.221 830.281 595.424 830.281C596.627 830.281 597.6 829.306 597.6 828.101Z" fill="#17191D"/>
<path d="M561.77 861.203C561.77 859.998 560.796 859.023 559.593 859.023C558.39 859.023 557.417 859.998 557.417 861.203C557.417 862.408 558.39 863.382 559.593 863.382C560.796 863.382 561.77 862.408 561.77 861.203Z" fill="#17191D"/>
<path d="M597.6 861.203C597.6 859.998 596.627 859.023 595.424 859.023C594.221 859.023 593.248 859.998 593.248 861.203C593.248 862.408 594.221 863.382 595.424 863.382C596.627 863.382 597.6 862.408 597.6 861.203Z" fill="#17191D"/>
<path d="M561.77 894.287C561.77 893.082 560.796 892.107 559.593 892.107C558.39 892.107 557.417 893.082 557.417 894.287C557.417 895.492 558.39 896.466 559.593 896.466C560.796 896.484 561.77 895.492 561.77 894.287Z" fill="#EAEAEA"/>
<path d="M597.6 894.287C597.6 893.082 596.627 892.107 595.424 892.107C594.221 892.107 593.248 893.082 593.248 894.287C593.248 895.491 594.221 896.466 595.424 896.466C596.627 896.466 597.6 895.491 597.6 894.287Z" fill="#EAEAEA"/>
<path d="M561.77 927.388C561.77 926.183 560.796 925.208 559.593 925.208C558.39 925.208 557.417 926.183 557.417 927.388C557.417 928.593 558.39 929.567 559.593 929.567C560.796 929.567 561.77 928.593 561.77 927.388Z" fill="#EAEAEA"/>
<path d="M597.6 927.388C597.6 926.183 596.627 925.208 595.424 925.208C594.221 925.208 593.248 926.183 593.248 927.388C593.248 928.593 594.221 929.567 595.424 929.567C596.627 929.567 597.6 928.593 597.6 927.388Z" fill="#EAEAEA"/>
<path d="M331.356 885.621C341.477 885.621 341.477 898.593 351.598 898.593C361.719 898.593 361.719 885.621 371.84 885.621C381.962 885.621 381.962 898.593 392.083 898.593C402.204 898.593 402.204 885.621 412.325 885.621C422.446 885.621 422.446 898.593 432.567 898.593C442.688 898.593 442.688 885.621 452.809 885.621C462.93 885.621 462.93 898.593 473.069 898.593C483.19 898.593 483.19 885.621 493.329 885.621" stroke="#17191D" stroke-miterlimit="10"/>
<path d="M163 466.5C163 432.534 135.466 405 101.5 405C67.5345 405 40 432.534 40 466.5C40 500.466 67.5345 528 101.5 528C135.466 528 163 500.465 163 466.5Z" fill="#FF0B53"/>
<path d="M243.205 580L213.997 609.202L184.795 580L163 601.795L192.202 631.003L163 660.205L184.795 682L213.997 652.798L243.205 682L265 660.205L235.798 631.003L265 601.795L243.205 580Z" fill="#FF0B53"/>
</g>
<defs>
<clipPath id="clip0_1_337">
<rect width="814" height="1040" fill="white"/>
</clipPath>
</defs>
</svg>
