<svg width="192" height="55" fill="none" xmlns="http://www.w3.org/2000/svg"><path d="M88.376 16.052v3.924h-7.668V41h-4.572V19.976h-7.668v-3.924h19.908Zm.23 15.624c0-1.656.24-3.108.72-4.356.505-1.248 1.165-2.28 1.98-3.096a7.8 7.8 0 0 1 2.809-1.872 8.485 8.485 0 0 1 3.24-.648c2.592 0 4.608.804 6.048 2.412 1.464 1.608 2.196 4.008 2.196 7.2 0 .24-.012.516-.036.828a8 8 0 0 1-.036.792h-12.42c.12 1.512.648 2.688 1.584 3.528.96.816 2.34 1.224 4.14 1.224 1.056 0 2.016-.096 2.88-.288.888-.192 1.584-.396 2.088-.612l.576 3.564a8.04 8.04 0 0 1-1.008.396c-.408.12-.888.228-1.44.324-.528.12-1.104.216-1.728.288-.624.072-1.26.108-1.908.108-1.656 0-3.096-.24-4.32-.72-1.224-.504-2.232-1.188-3.024-2.052a8.607 8.607 0 0 1-1.764-3.096c-.384-1.2-.576-2.508-.576-3.924Zm12.637-1.944c0-.6-.084-1.164-.252-1.692a3.763 3.763 0 0 0-.756-1.404 3.041 3.041 0 0 0-1.188-.936c-.456-.24-1.008-.36-1.656-.36-.672 0-1.26.132-1.764.396-.504.24-.936.564-1.296.972-.336.408-.6.876-.792 1.404a7.605 7.605 0 0 0-.396 1.62h8.1Zm13.69 8.136c1.152 0 1.992-.132 2.52-.396.528-.288.792-.768.792-1.44 0-.624-.288-1.14-.864-1.548-.552-.408-1.476-.852-2.772-1.332a27.71 27.71 0 0 1-2.196-.9 8.056 8.056 0 0 1-1.692-1.152 4.927 4.927 0 0 1-1.152-1.548c-.264-.624-.396-1.38-.396-2.268 0-1.728.636-3.084 1.908-4.068 1.272-1.008 3-1.512 5.184-1.512 1.104 0 2.16.108 3.168.324 1.008.192 1.764.384 2.268.576l-.792 3.528c-.48-.216-1.092-.408-1.836-.576-.744-.192-1.608-.288-2.592-.288-.888 0-1.608.156-2.16.468-.552.288-.828.744-.828 1.368 0 .312.048.588.144.828.12.24.312.468.576.684.264.192.612.396 1.044.612.432.192.96.396 1.584.612 1.032.384 1.908.768 2.628 1.152.72.36 1.308.78 1.764 1.26.48.456.828.984 1.044 1.584.216.6.324 1.32.324 2.16 0 1.8-.672 3.168-2.016 4.104-1.32.912-3.216 1.368-5.688 1.368-1.656 0-2.988-.144-3.996-.432-1.008-.264-1.716-.48-2.124-.648l.756-3.636c.648.264 1.416.516 2.304.756.912.24 1.944.36 3.096.36Zm11.521-20.664 4.356-.72v5.688h6.696v3.636h-6.696v7.668c0 1.512.24 2.592.72 3.24.48.648 1.296.972 2.448.972.792 0 1.488-.084 2.088-.252a13.832 13.832 0 0 0 1.476-.468l.72 3.456c-.504.216-1.164.432-1.98.648-.816.24-1.776.36-2.88.36-1.344 0-2.472-.18-3.384-.54-.888-.36-1.596-.876-2.124-1.548-.528-.696-.9-1.524-1.116-2.484-.216-.984-.324-2.1-.324-3.348V17.204ZM146.109 41h-4.356V22.172h4.356V41Zm.468-24.336c0 .816-.264 1.464-.792 1.944a2.69 2.69 0 0 1-1.872.72c-.744 0-1.38-.24-1.908-.72s-.792-1.128-.792-1.944c0-.84.264-1.5.792-1.98s1.164-.72 1.908-.72c.72 0 1.344.24 1.872.72s.792 1.14.792 1.98Zm5.09 6.12c.84-.24 1.932-.468 3.276-.684 1.344-.216 2.832-.324 4.464-.324 1.536 0 2.82.216 3.852.648 1.032.408 1.848.996 2.448 1.764.624.744 1.056 1.656 1.296 2.736.264 1.056.396 2.22.396 3.492V41h-4.356v-9.9c0-1.008-.072-1.86-.216-2.556-.12-.72-.336-1.296-.648-1.728a2.354 2.354 0 0 0-1.224-.972c-.504-.216-1.128-.324-1.872-.324-.552 0-1.128.036-1.728.108-.6.072-1.044.132-1.332.18V41h-4.356V22.784Zm24.478 8.316c0 1.848.396 3.204 1.188 4.068.816.84 1.86 1.26 3.132 1.26.696 0 1.344-.096 1.944-.288.624-.192 1.128-.42 1.512-.684V25.7a9.794 9.794 0 0 0-1.152-.18c-.456-.072-1.032-.108-1.728-.108-1.584 0-2.796.528-3.636 1.584-.84 1.032-1.26 2.4-1.26 4.104Zm12.132 7.992c0 3-.768 5.196-2.304 6.588-1.512 1.392-3.84 2.088-6.984 2.088-1.152 0-2.28-.096-3.384-.288a18.89 18.89 0 0 1-2.952-.756l.792-3.708c.744.312 1.584.564 2.52.756.96.192 1.992.288 3.096.288 1.752 0 3-.36 3.744-1.08.744-.72 1.116-1.788 1.116-3.204v-.72c-.432.216-1.008.432-1.728.648-.696.216-1.5.324-2.412.324-1.2 0-2.304-.192-3.312-.576a7.107 7.107 0 0 1-2.556-1.692c-.696-.744-1.248-1.668-1.656-2.772-.384-1.128-.576-2.424-.576-3.888 0-1.368.204-2.628.612-3.78.432-1.152 1.044-2.136 1.836-2.952.816-.816 1.8-1.452 2.952-1.908 1.152-.456 2.46-.684 3.924-.684 1.416 0 2.76.108 4.032.324 1.272.216 2.352.444 3.24.684v16.308Z" fill="#F2F2F2"/><path fill-rule="evenodd" clip-rule="evenodd" d="M43.356 5.029C31.46 5.624 22 15.457 22 27.5s9.461 21.876 21.356 22.471A27.374 27.374 0 0 1 27.5 55C12.312 55 0 42.688 0 27.5S12.312 0 27.5 0a27.374 27.374 0 0 1 15.856 5.029Z" fill="#FF0B53"/><circle cx="44.5" cy="27.5" r="19.5" fill="#fff"/></svg>