<svg width="529" height="712" viewBox="0 0 529 712" fill="none" xmlns="http://www.w3.org/2000/svg">
<path d="M290.441 4.1984C480.71 -19.9666 562.493 120.028 515.351 215.649C468.209 311.269 258.824 331.479 288.092 486.351C317.373 641.236 62.8174 711.261 62.8174 711.261" stroke="white" stroke-miterlimit="10"/>
<path d="M0.879395 44.6174C0.879395 44.6174 145.923 97.1459 290.238 78.2864C434.553 59.4269 451.428 144.193 434.553 177.943C399.534 247.981 212.33 261.441 200.207 374.571C191.094 459.608 263.508 573.899 99.1999 634.5" stroke="white" stroke-miterlimit="10"/>
<path d="M65.531 101.182C65.531 101.182 213.788 82.2689 187.314 165.834C156.98 261.616 85.727 260.104 153.065 381.321C177.014 424.44 184.047 598.158 52.058 563.139" stroke="white" stroke-miterlimit="10"/>
<path d="M316.698 198.153C353.515 198.153 383.361 181.87 383.361 161.784C383.361 141.698 353.515 125.415 316.698 125.415C279.881 125.415 250.035 141.698 250.035 161.784C250.035 181.87 279.881 198.153 316.698 198.153Z" stroke="white" stroke-miterlimit="10"/>
</svg>
