<svg width="854" height="672" viewBox="0 0 854 672" fill="none" xmlns="http://www.w3.org/2000/svg">
<path d="M730.081 7.40938C730.081 7.40938 462.592 -55.4466 381.781 208.532C323.799 397.951 318.857 501.239 198.572 553.309C78.301 605.378 8.26299 616.529 1.08099 672.905" stroke="white" stroke-miterlimit="10"/>
<path d="M317.062 672.906C317.062 672.906 246.457 497.635 432.784 406.065C558.563 344.248 499.595 134.377 581.108 67.5655C645.76 14.5915 730.081 128.977 730.081 128.977" stroke="white" stroke-miterlimit="10"/>
<path d="M372.317 720.263C372.317 720.263 374.464 584.683 518.117 495.799C661.771 406.915 605.543 253.379 688.163 230.038C770.77 206.696 853.376 307.258 853.376 307.258" stroke="white" stroke-miterlimit="10"/>
<path d="M473.365 671.825C473.365 671.825 462.592 560.491 572.131 546.127C681.67 531.763 775.05 653.465 775.05 653.465" stroke="white" stroke-miterlimit="10"/>
</svg>
