<svg width="854" height="672" fill="none" xmlns="http://www.w3.org/2000/svg"><path d="M730.081 7.41s-267.489-62.857-348.3 201.122c-57.982 189.419-62.924 292.707-183.209 344.777C78.301 605.378 8.263 616.529 1.081 672.905" stroke="#fff" stroke-miterlimit="10"/><path d="M317.062 672.906s-70.605-175.271 115.722-266.841c125.779-61.817 66.811-271.688 148.324-338.5 64.652-52.974 148.973 61.412 148.973 61.412M372.317 720.263s2.147-135.58 145.8-224.464c143.654-88.884 87.426-242.42 170.046-265.761 82.607-23.342 165.213 77.22 165.213 77.22" stroke="#fff" stroke-miterlimit="10"/><path d="M473.365 671.825s-10.773-111.334 98.766-125.698C681.67 531.763 775.05 653.465 775.05 653.465" stroke="#fff" stroke-miterlimit="10"/></svg>