<svg width="529" height="712" fill="none" xmlns="http://www.w3.org/2000/svg"><path d="M290.441 4.198c190.269-24.165 272.052 115.83 224.91 211.451-47.142 95.62-256.527 115.83-227.259 270.702 29.281 154.885-225.275 224.91-225.275 224.91" stroke="#fff" stroke-miterlimit="10"/><path d="M.88 44.617s145.043 52.529 289.358 33.67c144.315-18.86 161.19 65.906 144.315 99.656-35.019 70.038-222.223 83.498-234.346 196.628C191.094 459.608 263.508 573.899 99.2 634.5" stroke="#fff" stroke-miterlimit="10"/><path d="M65.531 101.182s148.257-18.913 121.783 64.652c-30.334 95.782-101.587 94.27-34.249 215.487 23.949 43.119 30.982 216.837-101.007 181.818M316.698 198.153c36.817 0 66.663-16.283 66.663-36.369s-29.846-36.369-66.663-36.369c-36.817 0-66.663 16.283-66.663 36.369s29.846 36.369 66.663 36.369Z" stroke="#fff" stroke-miterlimit="10"/></svg>